<mxfile host="app.diagrams.net" agent="Mozilla/5.0 (X11; Linux x86_64) AppleWebKit/537.36 (KHTML, like Gecko) Chrome/133.0.0.0 Safari/537.36" version="27.2.0">
  <diagram name="Page-1" id="J70S3mSGFMxaXTudp1Li">
    <mxGraphModel dx="1069" dy="1139" grid="1" gridSize="10" guides="1" tooltips="1" connect="1" arrows="1" fold="1" page="1" pageScale="1" pageWidth="850" pageHeight="1100" math="0" shadow="0">
      <root>
        <mxCell id="0" />
        <mxCell id="1" parent="0" />
        <mxCell id="QjvbrwCSIG8cVr76xuxz-33" value="" style="edgeStyle=orthogonalEdgeStyle;rounded=0;orthogonalLoop=1;jettySize=auto;html=1;" edge="1" parent="1" source="QjvbrwCSIG8cVr76xuxz-24" target="QjvbrwCSIG8cVr76xuxz-31">
          <mxGeometry relative="1" as="geometry" />
        </mxCell>
        <mxCell id="QjvbrwCSIG8cVr76xuxz-24" value="&lt;font style=&quot;font-size: 18px; color: light-dark(rgb(26, 64, 255), rgb(0, 0, 0));&quot;&gt;&lt;b&gt;Start&lt;/b&gt;&lt;/font&gt;" style="rounded=1;whiteSpace=wrap;html=1;labelBackgroundColor=none;fillColor=#BC6C25;strokeColor=#DDA15E;fontColor=#FEFAE0;" vertex="1" parent="1">
          <mxGeometry x="340" y="120" width="75" height="40" as="geometry" />
        </mxCell>
        <mxCell id="QjvbrwCSIG8cVr76xuxz-35" value="" style="edgeStyle=orthogonalEdgeStyle;rounded=0;orthogonalLoop=1;jettySize=auto;html=1;" edge="1" parent="1" source="QjvbrwCSIG8cVr76xuxz-30" target="QjvbrwCSIG8cVr76xuxz-32">
          <mxGeometry relative="1" as="geometry" />
        </mxCell>
        <mxCell id="QjvbrwCSIG8cVr76xuxz-30" value="&lt;div&gt;&lt;font color=&quot;#ededed&quot;&gt;&lt;span style=&quot;font-size: 18px;&quot;&gt;&lt;b&gt;un = num % 10;&lt;/b&gt;&lt;/span&gt;&lt;/font&gt;&lt;/div&gt;&lt;div&gt;&lt;font color=&quot;#ededed&quot;&gt;&lt;span style=&quot;font-size: 18px;&quot;&gt;&lt;b&gt;tn = (num / 10) % 10;&lt;/b&gt;&lt;/span&gt;&lt;/font&gt;&lt;/div&gt;&lt;div&gt;&lt;font color=&quot;#ededed&quot;&gt;&lt;span style=&quot;font-size: 18px;&quot;&gt;&lt;b&gt;hd = (num / 100) % 100;&lt;/b&gt;&lt;/span&gt;&lt;/font&gt;&lt;/div&gt;" style="rounded=0;whiteSpace=wrap;html=1;strokeColor=#DDA15E;fontColor=#FEFAE0;fillColor=#BC6C25;labelBackgroundColor=none;" vertex="1" parent="1">
          <mxGeometry x="235" y="280" width="285" height="120" as="geometry" />
        </mxCell>
        <mxCell id="QjvbrwCSIG8cVr76xuxz-34" value="" style="edgeStyle=orthogonalEdgeStyle;rounded=0;orthogonalLoop=1;jettySize=auto;html=1;" edge="1" parent="1" source="QjvbrwCSIG8cVr76xuxz-31" target="QjvbrwCSIG8cVr76xuxz-30">
          <mxGeometry relative="1" as="geometry" />
        </mxCell>
        <mxCell id="QjvbrwCSIG8cVr76xuxz-31" value="&lt;b style=&quot;color: rgb(0, 0, 0); font-size: 18px;&quot;&gt;Input 3 digit num&lt;/b&gt;" style="shape=parallelogram;perimeter=parallelogramPerimeter;whiteSpace=wrap;html=1;fixedSize=1;labelBackgroundColor=none;fillColor=#BC6C25;strokeColor=#DDA15E;fontColor=#FEFAE0;" vertex="1" parent="1">
          <mxGeometry x="235" y="200" width="285" height="40" as="geometry" />
        </mxCell>
        <mxCell id="QjvbrwCSIG8cVr76xuxz-37" value="" style="edgeStyle=orthogonalEdgeStyle;rounded=0;orthogonalLoop=1;jettySize=auto;html=1;" edge="1" parent="1" source="QjvbrwCSIG8cVr76xuxz-32" target="QjvbrwCSIG8cVr76xuxz-36">
          <mxGeometry relative="1" as="geometry" />
        </mxCell>
        <mxCell id="QjvbrwCSIG8cVr76xuxz-32" value="&lt;b style=&quot;color: rgb(0, 0, 0); font-size: 18px;&quot;&gt;Print coin&lt;/b&gt;" style="shape=parallelogram;perimeter=parallelogramPerimeter;whiteSpace=wrap;html=1;fixedSize=1;labelBackgroundColor=none;fillColor=#BC6C25;strokeColor=#DDA15E;fontColor=#FEFAE0;" vertex="1" parent="1">
          <mxGeometry x="235" y="440" width="285" height="40" as="geometry" />
        </mxCell>
        <mxCell id="QjvbrwCSIG8cVr76xuxz-36" value="&lt;font style=&quot;font-size: 18px; color: light-dark(rgb(26, 64, 255), rgb(0, 0, 0));&quot;&gt;&lt;b&gt;Stop&lt;/b&gt;&lt;/font&gt;" style="rounded=1;whiteSpace=wrap;html=1;labelBackgroundColor=none;fillColor=#BC6C25;strokeColor=#DDA15E;fontColor=#FEFAE0;" vertex="1" parent="1">
          <mxGeometry x="340" y="520" width="75" height="40" as="geometry" />
        </mxCell>
      </root>
    </mxGraphModel>
  </diagram>
</mxfile>
